<?xml version="1.0" encoding="iso-8859-1"?>
<!-- Generator: Adobe Illustrator 18.0.0, SVG Export Plug-In . SVG Version: 6.00 Build 0)  -->
<!DOCTYPE svg PUBLIC "-//W3C//DTD SVG 1.1//EN" "http://www.w3.org/Graphics/SVG/1.1/DTD/svg11.dtd">
<svg version="1.1" id="Capa_1" xmlns="http://www.w3.org/2000/svg" xmlns:xlink="http://www.w3.org/1999/xlink" x="0px" y="0px"
	 viewBox="0 0 297 297" style="enable-background:new 0 0 297 297;" xml:space="preserve">
<g>
	<g>
		<path style="fill:#C63C22;" d="M114.5,0C105.939,0,99,6.94,99,15.5v67h73.167V0H114.5z"/>
	</g>
	<g>
		<path style="fill:#E04332;" d="M198,15.5C198,6.94,191.06,0,182.5,0h-10.333v82.5H198V15.5z"/>
	</g>
	<g>
		<path style="fill:#C63C22;" d="M99,214.5l0,67c0,8.56,6.94,15.5,15.5,15.5h57.667v-82.5H99z"/>
	</g>
	<g>
		<path style="fill:#E04332;" d="M172.167,214.5V297H182.5c8.56,0,15.5-6.939,15.5-15.5l0-67H172.167z"/>
	</g>
	<g>
		<path style="fill:#F9B65F;" d="M99.666,66C81.073,66,66,81.073,66,99.667v97.667C66,215.927,81.073,231,99.666,231h72.5V66H99.666
			z"/>
	</g>
	<g>
		<path style="fill:#FFA800;" d="M197.333,66h-25.167v165h25.167C215.927,231,231,215.927,231,197.333V99.667
			C231,81.073,215.927,66,197.333,66z"/>
	</g>
	<g>
		<path style="fill:#FFFFFF;" d="M188.416,214.5h-79.833c-14.406,0-26.083-11.678-26.083-26.083v-79.833
			c0-14.406,11.678-26.083,26.083-26.083h79.833c14.406,0,26.083,11.678,26.083,26.083v79.833
			C214.5,202.822,202.822,214.5,188.416,214.5z"/>
	</g>
	<g>
		<path style="fill:#D95459;" d="M181.5,132c0-10-7.387-16.5-16.5-16.5s-16.5,7.387-16.5,16.5c0-9.113-7.387-16.5-16.5-16.5
			s-16.5,6-16.5,16.5c0,17,33,33,33,33S181.5,149.5,181.5,132z"/>
	</g>
	<g>
		<path style="fill:#C63C22;" d="M123.75,198h49.5c4.556,0,8.25-3.694,8.25-8.25v0c0-4.556-3.694-8.25-8.25-8.25h-49.5
			c-4.556,0-8.25,3.694-8.25,8.25v0C115.5,194.306,119.194,198,123.75,198z"/>
	</g>
</g>
<g>
</g>
<g>
</g>
<g>
</g>
<g>
</g>
<g>
</g>
<g>
</g>
<g>
</g>
<g>
</g>
<g>
</g>
<g>
</g>
<g>
</g>
<g>
</g>
<g>
</g>
<g>
</g>
<g>
</g>
</svg>
